<?xml version="1.0" encoding="iso-8859-1"?>
<!-- Generator: Adobe Illustrator 19.0.0, SVG Export Plug-In . SVG Version: 6.00 Build 0)  -->
<svg version="1.1" id="Layer_1" xmlns="http://www.w3.org/2000/svg" xmlns:xlink="http://www.w3.org/1999/xlink" x="0px" y="0px"
	 viewBox="0 0 460 460" style="enable-background:new 0 0 460 460;" xml:space="preserve">
<g id="XMLID_1185_">
	<polygon id="XMLID_1186_" style="fill:#BCC7D4;" points="460,430 460,460 230,460 220,445 230,430 	"/>
	<rect id="XMLID_1187_" y="430" style="fill:#DAE0E7;" width="230" height="30"/>
	<polygon id="XMLID_1188_" style="fill:#3897FF;" points="460,0 460,400 413.75,400 383.75,200 413.75,0 	"/>
	<rect id="XMLID_1189_" x="367.5" style="fill:#8BC0FF;" width="46.25" height="400"/>
	<polygon id="XMLID_1190_" style="fill:#FFB739;" points="337.5,80 337.5,400 291.25,400 261.25,240 291.25,80 	"/>
	<rect id="XMLID_1191_" x="245" y="80" style="fill:#FFD488;" width="46.25" height="320"/>
	<polygon id="XMLID_1192_" style="fill:#3897FF;" points="215,160 215,400 168.75,400 148.75,280 168.75,160 	"/>
	<rect id="XMLID_1193_" x="122.5" y="160" style="fill:#8BC0FF;" width="46.25" height="240"/>
	<polygon id="XMLID_1194_" style="fill:#FFB739;" points="92.5,240 92.5,400 46.25,400 26.25,320 46.25,240 	"/>
	<rect id="XMLID_1195_" y="240" style="fill:#FFD488;" width="46.25" height="160"/>
</g>
<g>
</g>
<g>
</g>
<g>
</g>
<g>
</g>
<g>
</g>
<g>
</g>
<g>
</g>
<g>
</g>
<g>
</g>
<g>
</g>
<g>
</g>
<g>
</g>
<g>
</g>
<g>
</g>
<g>
</g>
</svg>
